/* XPM */
static char * xrosella_xpm[] = {
"41 63 66 1",
" 	s None c None",
".	c #41039A6969A6",
"X	c #38E359655965",
"o	c #9E79C71B9658",
"O	c #4924BAEAC71B",
"+	c #28A275D669A6",
"@	c #082008200820",
"#	c #28A271C65965",
"$	c #69A6CB2B4924",
"%	c #51448A286185",
"&	c #5144924830C2",
"*	c #208149241861",
"=	c #9E79A6998E38",
"-	c #4924B6DA8617",
";	c #6185C71B69A6",
":	c #28A28A2830C2",
">	c #4924A2894103",
",	c #8617C30B6185",
"<	c #28A261852081",
"1	c #186130C21040",
"2	c #9E79DB6CC71B",
"3	c #79E769A64924",
"4	c #208120812081",
"5	c #5144820730C2",
"6	c #8E38B6DA6185",
"7	c #28A271C628A2",
"8	c #9E79DB6C71C6",
"9	c #618528A21040",
"0	c #5965AAAA4103",
"q	c #8E3800000820",
"w	c #C71B00000820",
"e	c #DF7D08200000",
"r	c #CF3C65951861",
"t	c #5144618528A2",
"y	c #514471C628A2",
"u	c #79E79A696185",
"i	c #8E38A2896185",
"p	c #E79DEBADC71B",
"a	c #AEBABAEA38E3",
"s	c #79E771C62081",
"d	c #DF7DDF7D8E38",
"f	c #B6DAC30B6185",
"g	c #9E7979E738E3",
"h	c #79E7924830C2",
"j	c #8617BAEA30C2",
"k	c #082034D39658",
"l	c #CF3CCB2B69A6",
"z	c #CF3CC71B4103",
"x	c #EFBEBAEA69A6",
"c	c #EFBEC30B8E38",
"v	c #79E761852081",
"b	c #EFBEAAAA6185",
"n	c #D75C86174103",
"m	c #CF3CA2896185",
"M	c #E79D9E794924",
"N	c #CF3CDF7DAEBA",
"B	c #79E7820738E3",
"V	c #A699CF3C8E38",
"C	c #AEBA00000820",
"Z	c #514449242081",
"A	c #186169A6B6DA",
"S	c #18618617D75C",
"D	c #8E38CF3C4924",
"F	c #9E7941031040",
"G	c #9658A28930C2",
"H	c #000000000000",
"              .  . XooO +@# O$           ",
"          % &*  .=@*X-;.$*@o:X           ",
"           ;    >,@%%;.#<-@: <*          ",
"           @ #,@  123;#4*4@@@            ",
"         5@*@@6>@*:25*@4-77-.;8          ",
"      @ @ 1: @@1@@*-9@@@+41:<01 <        ",
"         @ >$, $@@@@qweer@@@@<< 77<      ",
"       @  @@@ %$@,tqweewe@@5ty@@@4@  u   ",
"       @ @  @6#7@i9q@@@9poa1sa1@44@,d1   ",
"       ; @ @@@*y@@qw@@@pp%*@@&@ a,518f   ",
"        O>@@@@@14qeq@@@gp@1<@@,6h44@j    ",
"        @ >1@@@@@we@kk@@=g4kthl1a@@  z   ",
"        5@4>;@@@9ee@@@@@@@@adxz4<@@j  &a ",
"        65#5o8@4qewwwqwwe@ddcdv18:1j@, @ ",
"        5%&.%>@@ewwwwewwebbbxx15*@7a  ,  ",
"         @ +<*@@ewwwwwwwncnmMMaa@@1NB> V ",
"      6 0  *1*@CwwwwwwwqbcrnrMnB@@@<1 @  ",
"     :6X 5441t@wwwwwwww99nrrrrB@@@@@ 6 4 ",
"     & ;=%@*1%@wwwqwCwwC@9rrrrZ@1*1@*Xy  ",
"     :h6; *Z+#@@@wwCwCCCq9999@s4<<*@     ",
"      *>uyy#OASk@ewCCCCCCwq@@@a7<7<1O22  ",
"      @ 5$*4*kOk@eCCCwCCCCe@@@s@<:7* =   ",
"    #*:=   @@@Sk@ewCCCqwCqe@@yD&@17<#    ",
"      %>$4@@*@k@@wCCCCwCCCe@@$z&@ @ @    ",
"    1   @@@@4@k@@ewqqwCqwqe@@jDa@@@  @   ",
"    1<*@@&fZ4uk@@CCq@9@qqwe@%@@4@@ZB     ",
"  l 1  <@4ly@*k@Fqqq@@@9qCe@&@@B         ",
"    @@ @*a@1@BVlc@9w9@@@@@@6m@By@        ",
" 7 @ 1 @ <@@Glfj*@@q@@@Cw@@l4@y& j       ",
" o@17:*@@1@*dig@@4@9qqCwe4@9@B$><        ",
"   1 -&4@@GllBG111@CC9wqqmi@@0 7*        ",
"  9a>: 45@ljZ6a*#*@qCqeq@jX4@574>        ",
" @ @B 4@7f4@@16<&4@CCCe@@87: :  j        ",
" l@@@@=@%tG1@BGXt99qCCe@*67*77><*        ",
" Dy@ @gachysBta449qCwwe@25<1 7 @@h       ",
"   X@@@@33@1Bio4@99Cww@@N@k& 5    t      ",
"  @N=@@@@@nMgiVS@qCCeq@X2o@@ @1pVH>      ",
" >@NxxB@@@4noigS@@qqC@A2o ih %2p iH      ",
"   cdcfu@@@@vVXOk@9q94S=@N6j* <Hml4      ",
" &1bxxih$4@@@@2Ok@@1g+k@@u @Z4 @ m       ",
" @ m bm4*:@@@@AASk@X$>@5@ 6hf            ",
"    bMv@4@@<7@AASk@@5<4$j y fG 8 a       ",
" @   b3;@@@+a*SAk@@@4@4<&@ 5G            ",
"  m bM g@@*4DoSk@+k41@*< @944@ @         ",
"   b mMu@ @@.uSA@XA+@@>1 1Bht  h- -      ",
"    MM 3 @@.84SA@@@k<4>141GGa y 51o      ",
"       i@5 ,8XSAk@@@*410j @@ 4Z @ ;      ",
"        t6ht5@SAkAk@i9*$ag@uh@@11        ",
"      g@oVi644Sk@-@@B@@@@g 8O,h 66       ",
"       @ 5N6*AS4@*@@@@<@@@ZVf.1@@        ",
"       @@@N2@SSA4@@4D d1@@@4doX*         ",
"         @,f@OSA@@@@oooh4@ @gZ V         ",
"       4@Z@@@OAS@@@@6fNi61  @ 1 N        ",
"      rg@@ >@O+A@2=@@@N =  y  4 9        ",
"      @ h@j@kSk@@-1&4 2 l*t*             ",
"     si @@ @SSk@-*@5*@hpG@               ",
"    Z p@@3@@OO@@4@@ <*4cX* p6            ",
"    g1  144@OS@4yy$   43Zgt    Z         ",
"   ir   :4@@4@@@1   i,3Z1                ",
"     @@57 <g=Z@@6@@*@G@                  ",
"       775H  xg315 1  @                  ",
"     s1 @  xdc= @f @@                    ",
"                     z                   "};
